HIERARCHY
ROOT Motion_Root
{
	OFFSET 0.000000 0.000000 0.000000
	CHANNELS 6 Xposition Yposition Zposition Zrotation Yrotation Xrotation
	JOINT Balance_Root
	{
		OFFSET 0.000000 0.000000 0.000000
		CHANNELS 3 Zrotation Yrotation Xrotation
		JOINT Character_Root
		{
			OFFSET 0.000000 0.066940 0.019576
			CHANNELS 6 Xposition Yposition Zposition Zrotation Yrotation Xrotation
			JOINT Pelvis
			{
				OFFSET 0.000000 -0.000049 0.000000
				CHANNELS 3 Zrotation Yrotation Xrotation
				JOINT Hip_L
				{
					OFFSET 0.099629 -0.096262 0.000507
					CHANNELS 3 Zrotation Yrotation Xrotation
					JOINT Knee_L
					{
						OFFSET 0.440729 -0.000000 -0.000000
						CHANNELS 3 Zrotation Yrotation Xrotation
						JOINT Ankle_L
						{
							OFFSET 0.418590 -0.000000 -0.000000
							CHANNELS 3 Zrotation Yrotation Xrotation
							JOINT Ball_L
							{
								OFFSET 0.147135 0.000000 0.000000
								CHANNELS 3 Zrotation Yrotation Xrotation
								End Site
								{
									OFFSET 0.000000 0.052462 0.000000
								}
							}
						}
					}
				}
				JOINT Hip_R
				{
					OFFSET -0.099629 -0.096262 0.000507
					CHANNELS 3 Zrotation Yrotation Xrotation
					JOINT Knee_R
					{
						OFFSET -0.440729 0.000000 0.000001
						CHANNELS 3 Zrotation Yrotation Xrotation
						JOINT Ankle_R
						{
							OFFSET -0.418591 0.000000 -0.000000
							CHANNELS 3 Zrotation Yrotation Xrotation
							JOINT Ball_R
							{
								OFFSET -0.147135 0.000000 -0.000000
								CHANNELS 3 Zrotation Yrotation Xrotation
								End Site
								{
									OFFSET 0.000000 0.052462 0.000000
								}
							}
						}
					}
				}
			}
			JOINT Spine_1
			{
				OFFSET 0.000000 0.010172 0.000032
				CHANNELS 6 Xposition Yposition Zposition Zrotation Yrotation Xrotation
				JOINT Spine_2
				{
					OFFSET 0.150000 -0.000000 -0.000000
					CHANNELS 3 Zrotation Yrotation Xrotation
					JOINT Spine_3
					{
						OFFSET 0.149789 0.000000 -0.000000
						CHANNELS 3 Zrotation Yrotation Xrotation
						JOINT Clavicle_L
						{
							OFFSET 0.177933 0.014436 -0.029517
							CHANNELS 3 Zrotation Yrotation Xrotation
							JOINT Shoulder_L
							{
								OFFSET 0.184187 -0.037845 0.013991
								CHANNELS 3 Zrotation Yrotation Xrotation
								JOINT Elbow_L
								{
									OFFSET 0.294246 0.000000 0.000000
									CHANNELS 3 Zrotation Yrotation Xrotation
									JOINT Forarm_L
									{
										OFFSET 0.154423 -0.000000 -0.000000
										CHANNELS 3 Zrotation Yrotation Xrotation
										JOINT Wrist_L
										{
											OFFSET 0.142091 -0.000000 0.000000
											CHANNELS 3 Zrotation Yrotation Xrotation
											JOINT Index_Base_L
											{
												OFFSET 0.095814 0.031774 0.000000
												CHANNELS 3 Zrotation Yrotation Xrotation
												JOINT Index_L
												{
													OFFSET 0.045455 0.000000 0.000000
													CHANNELS 3 Zrotation Yrotation Xrotation
													JOINT Index_L_End
													{
														OFFSET 0.031635 0.000000 0.000000
														CHANNELS 3 Zrotation Yrotation Xrotation
														End Site
														{
															OFFSET 0.000000 0.052462 0.000000
														}
													}
												}
											}
											JOINT Middle_Base_L
											{
												OFFSET 0.095026 0.000000 0.000000
												CHANNELS 3 Zrotation Yrotation Xrotation
												JOINT Middle_L
												{
													OFFSET 0.047568 0.000000 0.000000
													CHANNELS 3 Zrotation Yrotation Xrotation
													JOINT Middle_L_End
													{
														OFFSET 0.036744 0.000000 0.000000
														CHANNELS 3 Zrotation Yrotation Xrotation
														End Site
														{
															OFFSET 0.000000 0.052462 0.000000
														}
													}
												}
											}
											JOINT Ring_Base_L
											{
												OFFSET 0.093299 -0.026986 -0.004543
												CHANNELS 3 Zrotation Yrotation Xrotation
												JOINT Ring_L
												{
													OFFSET 0.038544 0.000000 0.000000
													CHANNELS 3 Zrotation Yrotation Xrotation
													JOINT Ring_L_End
													{
														OFFSET 0.032742 -0.000000 -0.000000
														CHANNELS 3 Zrotation Yrotation Xrotation
														End Site
														{
															OFFSET 0.000000 0.052462 0.000000
														}
													}
												}
											}
											JOINT Pink_Base_L
											{
												OFFSET 0.081489 -0.051765 -0.008192
												CHANNELS 3 Zrotation Yrotation Xrotation
												JOINT Pink_L
												{
													OFFSET 0.027743 0.000000 0.000000
													CHANNELS 3 Zrotation Yrotation Xrotation
													JOINT Pink_L_End
													{
														OFFSET 0.021921 0.000000 0.000000
														CHANNELS 3 Zrotation Yrotation Xrotation
														End Site
														{
															OFFSET 0.000000 0.052462 0.000000
														}
													}
												}
											}
											JOINT Thumb_Base_L
											{
												OFFSET 0.008684 0.036312 -0.013088
												CHANNELS 3 Zrotation Yrotation Xrotation
												JOINT Thumb_L
												{
													OFFSET 0.048268 0.000000 -0.000000
													CHANNELS 3 Zrotation Yrotation Xrotation
													JOINT Thumb_L_End
													{
														OFFSET 0.046125 0.000000 0.000000
														CHANNELS 3 Zrotation Yrotation Xrotation
														End Site
														{
															OFFSET 0.000000 0.052462 0.000000
														}
													}
												}
											}
										}
									}
									JOINT Shield_L
									{
										OFFSET 0.154423 -0.000000 -0.000000
										CHANNELS 6 Xposition Yposition Zposition Zrotation Yrotation Xrotation
										End Site
										{
											OFFSET 0.000000 0.052462 0.000000
										}
									}
								}
							}
							JOINT Shoulder_Con_L
							{
								OFFSET 0.184187 -0.037845 0.013991
								CHANNELS 6 Xposition Yposition Zposition Zrotation Yrotation Xrotation
								End Site
								{
									OFFSET 0.000000 0.052462 0.000000
								}
							}
						}
						JOINT Neck
						{
							OFFSET 0.238905 0.013908 -0.000000
							CHANNELS 3 Zrotation Yrotation Xrotation
							JOINT Head
							{
								OFFSET 0.069269 0.000000 -0.000000
								CHANNELS 3 Zrotation Yrotation Xrotation
								JOINT Jaw
								{
									OFFSET 0.051115 -0.008047 0.000000
									CHANNELS 3 Zrotation Yrotation Xrotation
									End Site
									{
										OFFSET 0.000000 0.052462 0.000000
									}
								}
								JOINT Brow_01_R
								{
									OFFSET 0.136025 -0.053988 0.023161
									CHANNELS 3 Zrotation Yrotation Xrotation
									End Site
									{
										OFFSET 0.000000 0.052462 0.000000
									}
								}
								JOINT Eyelid_Upper_R
								{
									OFFSET 0.101620 -0.047226 0.031842
									CHANNELS 3 Zrotation Yrotation Xrotation
									End Site
									{
										OFFSET 0.000000 0.052462 0.000000
									}
								}
								JOINT Eye_R
								{
									OFFSET 0.101620 -0.047226 0.031842
									CHANNELS 3 Zrotation Yrotation Xrotation
									End Site
									{
										OFFSET 0.000000 0.052462 0.000000
									}
								}
								JOINT Eye_L
								{
									OFFSET 0.101621 -0.047312 -0.032060
									CHANNELS 3 Zrotation Yrotation Xrotation
									End Site
									{
										OFFSET 0.000000 0.052462 0.000000
									}
								}
								JOINT Cheek_L
								{
									OFFSET 0.102057 -0.034809 -0.060176
									CHANNELS 3 Zrotation Yrotation Xrotation
									End Site
									{
										OFFSET 0.000000 0.052462 0.000000
									}
								}
								JOINT Cheek_R
								{
									OFFSET 0.102057 -0.034809 0.060176
									CHANNELS 3 Zrotation Yrotation Xrotation
									End Site
									{
										OFFSET 0.000000 0.052462 0.000000
									}
								}
								JOINT Nostril_L
								{
									OFFSET 0.126492 -0.015712 -0.021073
									CHANNELS 3 Zrotation Yrotation Xrotation
									End Site
									{
										OFFSET 0.000000 0.052462 0.000000
									}
								}
								JOINT Nostril_R
								{
									OFFSET 0.126612 -0.015613 0.021017
									CHANNELS 3 Zrotation Yrotation Xrotation
									End Site
									{
										OFFSET 0.000000 0.052462 0.000000
									}
								}
								JOINT Blow_L
								{
									OFFSET 0.093810 0.017733 -0.048936
									CHANNELS 3 Zrotation Yrotation Xrotation
									End Site
									{
										OFFSET 0.000000 0.052462 0.000000
									}
								}
								JOINT Blow_R
								{
									OFFSET 0.093810 0.017733 0.048936
									CHANNELS 3 Zrotation Yrotation Xrotation
									End Site
									{
										OFFSET 0.000000 0.052462 0.000000
									}
								}
								JOINT Upper_Lip
								{
									OFFSET 0.133670 0.023044 -0.000074
									CHANNELS 3 Zrotation Yrotation Xrotation
									End Site
									{
										OFFSET 0.000000 0.052462 0.000000
									}
								}
								JOINT Upper_Lip_L
								{
									OFFSET 0.127226 0.023254 -0.018252
									CHANNELS 3 Zrotation Yrotation Xrotation
									End Site
									{
										OFFSET 0.000000 0.052462 0.000000
									}
								}
								JOINT Upper_Lip_R
								{
									OFFSET 0.127226 0.023251 0.018252
									CHANNELS 3 Zrotation Yrotation Xrotation
									End Site
									{
										OFFSET 0.000000 0.052462 0.000000
									}
								}
								JOINT Corner_Lip_L
								{
									OFFSET 0.113981 0.030349 -0.028767
									CHANNELS 3 Zrotation Yrotation Xrotation
									End Site
									{
										OFFSET 0.000000 0.052462 0.000000
									}
								}
								JOINT Corner_Lip_R
								{
									OFFSET 0.113981 0.030347 0.028767
									CHANNELS 3 Zrotation Yrotation Xrotation
									End Site
									{
										OFFSET 0.000000 0.052462 0.000000
									}
								}
								JOINT Bottom_Lip
								{
									OFFSET 0.128178 0.033591 -0.000011
									CHANNELS 3 Zrotation Yrotation Xrotation
									End Site
									{
										OFFSET 0.000000 0.052462 0.000000
									}
								}
								JOINT Bottom_Lip_L
								{
									OFFSET 0.125106 0.032641 -0.015647
									CHANNELS 3 Zrotation Yrotation Xrotation
									End Site
									{
										OFFSET 0.000000 0.052462 0.000000
									}
								}
								JOINT Bottom_Lip_R
								{
									OFFSET 0.125106 0.032637 0.015648
									CHANNELS 3 Zrotation Yrotation Xrotation
									End Site
									{
										OFFSET 0.000000 0.052462 0.000000
									}
								}
								JOINT tongue_base
								{
									OFFSET 0.061621 0.030438 0.000000
									CHANNELS 3 Zrotation Yrotation Xrotation
									JOINT tongue
									{
										OFFSET 0.026398 0.000000 -0.000000
										CHANNELS 3 Zrotation Yrotation Xrotation
										End Site
										{
											OFFSET 0.000000 0.052462 0.000000
										}
									}
								}
								JOINT Eyelid_Upper_L
								{
									OFFSET 0.101621 -0.047312 -0.032060
									CHANNELS 3 Zrotation Yrotation Xrotation
									End Site
									{
										OFFSET 0.000000 0.052462 0.000000
									}
								}
								JOINT Eyelid_Lower_L
								{
									OFFSET 0.101621 -0.047312 -0.032060
									CHANNELS 3 Zrotation Yrotation Xrotation
									End Site
									{
										OFFSET 0.000000 0.052462 0.000000
									}
								}
								JOINT Eyelid_Lower_R
								{
									OFFSET 0.101620 -0.047226 0.031842
									CHANNELS 3 Zrotation Yrotation Xrotation
									End Site
									{
										OFFSET 0.000000 0.052462 0.000000
									}
								}
								JOINT Brow_01_L
								{
									OFFSET 0.136025 -0.053988 -0.023161
									CHANNELS 3 Zrotation Yrotation Xrotation
									End Site
									{
										OFFSET 0.000000 0.052462 0.000000
									}
								}
								JOINT Brow_02_L
								{
									OFFSET 0.118674 -0.063354 -0.053970
									CHANNELS 3 Zrotation Yrotation Xrotation
									End Site
									{
										OFFSET 0.000000 0.052462 0.000000
									}
								}
								JOINT Brow_02_R
								{
									OFFSET 0.118674 -0.063354 0.053970
									CHANNELS 3 Zrotation Yrotation Xrotation
									End Site
									{
										OFFSET 0.000000 0.052462 0.000000
									}
								}
							}
						}
						JOINT Clavicle_R
						{
							OFFSET 0.177936 0.014436 0.029517
							CHANNELS 3 Zrotation Yrotation Xrotation
							JOINT Shoulder_R
							{
								OFFSET -0.184187 0.037850 -0.013991
								CHANNELS 3 Zrotation Yrotation Xrotation
								JOINT Elbow_R
								{
									OFFSET -0.294245 -0.000000 -0.000001
									CHANNELS 3 Zrotation Yrotation Xrotation
									JOINT Forarm_R
									{
										OFFSET -0.154426 0.000001 0.000001
										CHANNELS 3 Zrotation Yrotation Xrotation
										JOINT Wrist_R
										{
											OFFSET -0.142085 -0.000001 -0.000003
											CHANNELS 3 Zrotation Yrotation Xrotation
											JOINT Index_Base_R
											{
												OFFSET -0.095816 -0.031773 0.000001
												CHANNELS 3 Zrotation Yrotation Xrotation
												JOINT Index_R
												{
													OFFSET -0.045455 0.000000 0.000000
													CHANNELS 3 Zrotation Yrotation Xrotation
													JOINT Index_R_End
													{
														OFFSET -0.031636 0.000000 0.000000
														CHANNELS 3 Zrotation Yrotation Xrotation
														End Site
														{
															OFFSET 0.000000 0.052462 0.000000
														}
													}
												}
											}
											JOINT Middle_Base_R
											{
												OFFSET -0.095028 0.000001 0.000001
												CHANNELS 3 Zrotation Yrotation Xrotation
												JOINT Middle_R
												{
													OFFSET -0.047568 -0.000001 -0.000000
													CHANNELS 3 Zrotation Yrotation Xrotation
													JOINT Middle_R_End
													{
														OFFSET -0.036744 0.000000 -0.000000
														CHANNELS 3 Zrotation Yrotation Xrotation
														End Site
														{
															OFFSET 0.000000 0.052462 0.000000
														}
													}
												}
											}
											JOINT Ring_Base_R
											{
												OFFSET -0.093300 0.026987 0.004544
												CHANNELS 3 Zrotation Yrotation Xrotation
												JOINT Ring_R
												{
													OFFSET -0.038545 0.000000 0.000000
													CHANNELS 3 Zrotation Yrotation Xrotation
													JOINT Ring_R_End
													{
														OFFSET -0.032742 -0.000000 0.000000
														CHANNELS 3 Zrotation Yrotation Xrotation
														End Site
														{
															OFFSET 0.000000 0.052462 0.000000
														}
													}
												}
											}
											JOINT Pink_Base_R
											{
												OFFSET -0.081491 0.051765 0.008192
												CHANNELS 3 Zrotation Yrotation Xrotation
												JOINT Pink_R
												{
													OFFSET -0.027743 0.000000 0.000000
													CHANNELS 3 Zrotation Yrotation Xrotation
													JOINT Pink_R_End
													{
														OFFSET -0.021921 -0.000001 0.000000
														CHANNELS 3 Zrotation Yrotation Xrotation
														End Site
														{
															OFFSET 0.000000 0.052462 0.000000
														}
													}
												}
											}
											JOINT Thumb_Base_R
											{
												OFFSET -0.008687 -0.036310 0.013090
												CHANNELS 3 Zrotation Yrotation Xrotation
												JOINT Thumb_R
												{
													OFFSET -0.048266 0.000002 -0.000000
													CHANNELS 3 Zrotation Yrotation Xrotation
													JOINT Thumb_R_End
													{
														OFFSET -0.046125 -0.000000 0.000000
														CHANNELS 3 Zrotation Yrotation Xrotation
														End Site
														{
															OFFSET 0.000000 0.052462 0.000000
														}
													}
												}
											}
											JOINT R_Wrist_Grapple
											{
												OFFSET -0.095816 -0.031773 0.000001
												CHANNELS 6 Xposition Yposition Zposition Zrotation Yrotation Xrotation
												End Site
												{
													OFFSET 0.000000 0.052462 0.000000
												}
											}
										}
									}
									JOINT Shield_R
									{
										OFFSET -0.154426 0.000001 0.000001
										CHANNELS 6 Xposition Yposition Zposition Zrotation Yrotation Xrotation
										End Site
										{
											OFFSET 0.000000 0.052462 0.000000
										}
									}
								}
							}
							JOINT Shoulder_Con_R
							{
								OFFSET -0.184187 0.037850 -0.013991
								CHANNELS 6 Xposition Yposition Zposition Zrotation Yrotation Xrotation
								End Site
								{
									OFFSET 0.000000 0.052462 0.000000
								}
							}
						}
						JOINT Collar_L
						{
							OFFSET 0.238905 0.013908 -0.000000
							CHANNELS 6 Xposition Yposition Zposition Zrotation Yrotation Xrotation
							End Site
							{
								OFFSET 0.000000 0.052462 0.000000
							}
						}
						JOINT Collar_R
						{
							OFFSET 0.238905 0.013908 -0.000000
							CHANNELS 6 Xposition Yposition Zposition Zrotation Yrotation Xrotation
							End Site
							{
								OFFSET 0.000000 0.052462 0.000000
							}
						}
					}
				}
			}
		}
	}
	JOINT Root_Grapple
	{
		OFFSET 0.000000 0.000000 0.000000
		CHANNELS 6 Xposition Yposition Zposition Zrotation Yrotation Xrotation
		End Site
		{
			OFFSET 0.000000 0.052462 0.000000
		}
	}
}
MOTION
Frames: 2
Frame Time: 0.0333333
-0.091492 1.000000 -0.311035 0.000000 0.000000 -0.000000 0.000000 0.000000 -0.000000 -0.034027 -0.555176 0.193604 0.000000 0.000000 -0.000000 3.847894 18.475270 -4.359881 27.606486 49.565369 -179.212454 122.385912 -0.000000 0.000000 -86.017754 -28.387617 8.105644 -26.461623 -0.311615 6.565056 46.021042 -12.919827 -93.331973 134.929132 -0.000000 0.000000 -107.637690 -24.176066 3.964637 -64.417717 7.245505 30.125712 -0.000184 0.009308 -0.004108 87.082769 29.584921 -86.188242 19.417820 2.741772 -15.205752 16.914693 2.741636 -15.208680 -139.383512 77.073359 -41.862635 -44.769434 -21.300477 -78.148615 60.240417 -0.000000 0.000000 0.000000 -0.000000 0.000000 -11.113427 -19.926553 7.171327 -0.032013 -3.828695 -89.042241 9.937705 -0.000000 0.000000 -5.000000 0.000000 -0.000000 -0.032013 -3.828695 -89.042241 9.937705 -0.000000 0.000000 -5.000000 0.000000 -0.000000 -0.032013 -3.828695 -89.042241 9.937705 -0.000000 0.000000 -5.000000 0.000000 -0.000000 -0.032013 -3.828695 -89.042241 9.937705 -0.000000 0.000000 -5.000000 0.000000 -0.000000 19.664451 14.402716 176.384905 9.937705 -0.000000 0.000000 -5.000000 0.000000 -0.000000 0.000000 -0.000000 0.113666 0.000000 0.000000 -0.000000 0.184187 -0.037845 0.013991 -59.416013 2.162014 -92.396100 30.393806 -3.268830 20.748820 67.864755 -0.000000 0.000000 28.256655 -0.000000 0.000000 0.000000 90.000000 177.771902 0.000000 90.000000 -179.893700 2.334000 -0.000000 -179.999995 2.334000 -0.000000 -179.999995 0.000000 90.000000 177.771907 0.000000 90.000000 177.771902 0.000000 90.000000 177.771890 0.000000 90.000000 177.771902 0.000000 90.000000 177.771905 0.000000 90.000000 177.771902 0.000000 90.000000 177.771902 0.000000 90.000000 177.771902 2.228098 52.206028 -0.000000 0.000000 90.000000 177.771907 -177.771902 88.556257 -180.000000 0.000000 90.000000 177.771902 0.000000 90.000000 177.771902 2.228098 56.277368 -0.000000 0.000000 0.000000 -179.999995 1.805123 0.000000 179.999995 0.000000 90.000000 -179.893700 0.000000 90.000000 -179.893700 0.000000 90.000000 -179.893700 0.000000 90.000000 177.771908 0.000000 90.000000 177.771902 0.000000 90.000000 177.771902 141.900787 84.390764 43.378637 -38.594795 55.974863 -78.987173 15.808313 -0.000000 0.000000 0.000000 -0.000000 0.000000 -21.068789 -31.056642 14.776935 -0.032013 -3.828695 -89.042241 9.937705 -0.000000 0.000000 -5.000000 0.000000 -0.000000 -0.032013 -3.828695 -89.042241 9.937705 -0.000000 0.000000 -5.000000 0.000000 -0.000000 -0.032013 -3.828695 -89.042241 9.937705 -0.000000 0.000000 -5.000000 0.000000 -0.000000 -0.032013 -3.828695 -89.042241 9.937705 -0.000000 0.000000 -5.000000 0.000000 -0.000000 8.819888 15.058149 163.207450 9.937705 -0.000000 0.000000 -5.000000 0.000000 -0.000000 0.801758 -0.081604 1.513672 0.000000 0.000000 -88.595242 0.000002 -0.000000 -0.113668 0.000000 0.000000 -0.000000 -0.184187 0.037850 -0.013991 -59.416013 2.162014 -92.396100 0.291985 0.193097 -0.131000 0.000000 90.000000 89.361892 0.291985 0.193097 0.130562 0.000000 90.000000 89.361892 0.000000 -1.000000 0.000000 0.000000 0.000000 -0.000000
-0.088745 1.000000 -0.290405 0.000000 0.000000 -0.000000 0.000000 0.000000 -0.000000 -0.007526 -0.531738 0.193726 0.000000 0.000000 -0.000000 3.794045 17.610306 -3.654868 25.963341 51.232545 -174.481237 120.816001 -0.000000 0.000000 -83.092407 -24.195451 3.241702 -26.457615 -0.291871 6.346254 44.807723 -16.714236 -92.725214 133.632789 -0.000000 0.000000 -106.450246 -25.736118 7.623081 -60.754940 7.684185 27.321904 -0.000164 0.009328 -0.003994 86.887417 30.589504 -86.757670 18.891002 2.539260 -14.679404 16.384851 2.540436 -14.678935 -144.502607 78.004092 -47.205216 -46.515319 -20.134530 -81.419638 66.341481 -0.000000 0.000000 0.000000 0.000000 -0.579252 -20.362472 -14.935795 10.358663 -0.018871 -2.415829 -89.105024 10.855148 -0.000000 0.000000 -5.000000 0.000000 -0.000000 0.042012 -2.481558 -88.965742 11.122607 -0.000000 0.000000 -5.000000 0.000000 -0.000000 -0.022894 -2.415737 -88.914226 10.815259 -0.000000 0.000000 -5.000000 0.000000 -0.000000 -0.027009 -2.478209 -88.751351 10.693768 -0.000000 0.000000 -5.000000 0.000000 -0.000000 19.732393 14.572926 177.115169 10.142125 -0.000000 0.000000 -5.000000 0.000000 -0.000000 0.000000 -0.000000 0.113666 0.000000 0.000000 -0.000000 0.184187 -0.037845 0.013991 -59.416013 2.162014 -92.396100 30.234442 -3.232642 20.191071 69.240608 0.454830 -0.049369 28.256655 -0.000000 0.000000 0.000000 90.000000 177.771902 0.000000 90.000000 -179.893700 2.334000 -0.000000 -179.999995 2.334000 -0.000000 -179.999995 0.000000 90.000000 177.771907 0.000000 90.000000 177.771902 0.000000 90.000000 177.771890 0.000000 90.000000 177.771902 0.000000 90.000000 177.771905 0.000000 90.000000 177.771902 0.000000 90.000000 177.771902 0.000000 90.000000 177.771902 2.228098 52.206028 -0.000000 0.000000 90.000000 177.771907 -177.771902 88.556257 -180.000000 0.000000 90.000000 177.771902 0.000000 90.000000 177.771902 2.228098 56.277368 -0.000000 0.000000 0.000000 -179.999995 1.805123 0.000000 179.999995 0.000000 90.000000 -179.893700 0.000000 90.000000 -179.893700 0.000000 90.000000 -179.893700 0.000000 90.000000 177.771908 0.000000 90.000000 177.771902 0.000000 90.000000 177.771902 -156.412039 83.954042 105.675589 -30.151770 56.013508 -68.792376 0.000000 -0.010491 0.000000 0.000000 0.000000 -1.294391 -11.083468 -28.678318 15.275798 -0.050130 -2.578258 -89.201842 10.855148 -0.000000 0.000000 -5.000000 0.000000 -0.000000 -0.056077 -2.707790 -88.986210 10.855148 -0.000000 0.000000 -5.000000 0.000000 -0.000000 -0.051220 -2.566933 -88.868083 10.855148 -0.000000 0.000000 -5.000000 0.000000 -0.000000 -0.035321 -2.544408 -88.409627 10.855148 -0.000000 0.000000 -5.000000 0.000000 -0.000000 9.085582 15.353488 163.276769 10.358100 -0.000000 0.000000 -5.000000 0.000000 -0.000000 0.796875 -0.081970 1.516602 0.000000 0.000000 -88.595242 0.000002 -0.000000 -0.113668 0.000000 0.000000 -0.000000 -0.184187 0.037850 -0.013991 -59.416013 2.162014 -92.396100 0.291985 0.193097 -0.131000 0.000000 90.000000 89.361892 0.291985 0.193097 0.130562 0.000000 90.000000 89.361892 0.000000 -1.000000 0.000000 0.000000 0.000000 -0.000000
